<svg width="25" height="24" viewBox="0 0 25 24" fill="none" xmlns="http://www.w3.org/2000/svg">
<path fill-rule="evenodd" clip-rule="evenodd" d="M11.96 0.0271584C6.01 0.437158 1.26 5.37716 1.07 11.3372C0.99 13.7472 1.64 16.0772 2.94 18.0772L0 23.9972C0.09 23.9972 7.27 22.0572 7.27 22.0572C8.96 22.9672 10.86 23.4372 12.79 23.4372C19.25 23.4372 24.51 18.1772 24.51 11.7172C24.51 5.25716 18.8 -0.442842 11.96 0.0271584ZM12.78 21.3972C11.07 21.3972 9.38 20.9372 7.91 20.0772C7.75 19.9872 7.54 19.8372 7.54 19.8372C7.54 19.8372 7.21 19.9472 7.12 19.9672L3.91 20.8472L5.28 17.8272C3.73 15.9172 2.97 13.5572 3.12 11.0972C3.41 6.29716 7.29 2.38716 12.09 2.05716C17.73 1.66716 22.45 6.14716 22.45 11.7072C22.45 17.2672 18.11 21.3872 12.77 21.3872L12.78 21.3972Z" fill="#F5F5F5"/>
</svg>
