<svg width="30" height="24" viewBox="0 0 30 24" fill="none" xmlns="http://www.w3.org/2000/svg">
<path fill-rule="evenodd" clip-rule="evenodd" d="M29.0787 2.85539C28.1487 3.27539 27.1287 3.52539 26.1287 3.69539C26.5987 3.61539 27.3087 2.75539 27.5787 2.40539C28.0087 1.87539 28.3587 1.27539 28.5587 0.615389C28.5887 0.565389 28.5987 0.495389 28.5587 0.465389C28.4987 0.435389 28.4487 0.455389 28.3987 0.475389C27.2787 1.07539 26.1287 1.50539 24.8987 1.81539C24.7987 1.84539 24.7187 1.81539 24.6587 1.75539C24.5587 1.64539 24.4587 1.53539 24.3487 1.44539C23.1087 0.385389 21.5187 -0.0946105 19.9487 0.0153895C19.9487 0.0153895 19.9587 0.0153895 19.9688 0.0153895H19.8487C19.8487 0.0153895 19.8787 0.0153892 19.8888 0.0253892C19.0187 0.0953892 18.1588 0.345389 17.3687 0.795389C15.0687 2.09539 13.9587 4.64539 14.3387 7.20539C14.3587 7.34539 14.3387 7.36539 14.2187 7.34539C9.40875 6.62539 5.41875 4.90539 2.18875 1.21539C2.04875 1.05539 1.96875 1.05539 1.85875 1.22539C0.438749 3.34539 1.12875 6.75539 2.89875 8.43539C3.13875 8.65539 3.37875 8.88539 3.63875 9.08539C3.53875 9.10539 2.36875 8.97539 1.31875 8.43539C1.17875 8.34539 1.10875 8.39539 1.09875 8.55539C1.08875 8.78539 1.09875 8.99539 1.13875 9.24539C1.40875 11.3954 2.89875 13.3854 4.93875 14.1654C5.17875 14.2654 5.44875 14.3554 5.70875 14.4054C5.24875 14.5054 4.76875 14.5754 3.42875 14.4754C3.25875 14.4454 3.19875 14.5254 3.25875 14.6854C4.25875 17.4154 6.42875 18.2254 8.04875 18.6954C8.26875 18.7354 8.47875 18.7354 8.69875 18.7854C8.68875 18.8054 8.66875 18.8054 8.65875 18.8254C8.11875 19.6454 6.25875 20.2554 5.38875 20.5554C3.80875 21.1054 2.08875 21.3554 0.428749 21.1954C0.158749 21.1554 0.108749 21.1554 0.0287491 21.1954C-0.0412509 21.2454 0.0287491 21.3054 0.108749 21.3754C0.448749 21.5954 0.788749 21.7954 1.13875 21.9854C2.19875 22.5454 3.29875 22.9954 4.45875 23.3154C11.1687 25.1654 18.5487 23.2854 22.8587 17.6554C25.3888 14.3554 26.3687 10.2754 26.3687 6.17539C26.3687 5.98539 26.5887 5.88539 26.7287 5.78539C27.6387 5.09539 28.3687 4.27539 29.0487 3.35539C29.1987 3.14539 29.1887 2.96539 29.1887 2.88539V2.85539C29.1887 2.77539 29.1887 2.80539 29.0787 2.85539Z" fill="#F5F5F5"/>
</svg>
